<svg id="Layer_1" data-name="Layer 1" xmlns="http://www.w3.org/2000/svg" viewBox="0 0 20 20"><title>post-closer</title><path d="M7.8,3.2,9.6.2A2.54,2.54,0,0,0,8.9,0,1.79,1.79,0,0,0,7.1,1.8,1.75,1.75,0,0,0,7.8,3.2Z" style="fill:#fe5858"/><path d="M20,12.1l-.5-.3a8.06,8.06,0,0,0-1.6-4.3l-1.3.2.1-.1A1.2,1.2,0,0,0,16.4,6l-.7-.5a1.1,1.1,0,0,0-1.5.3l-.1.1-.6-3.3L10.1.5l-1.8,3,1,.5L2.8,3.2,1.9,4.6,5.8,7.2a1.79,1.79,0,0,0-.5.7c-.2.2-.3.5-.5.7L.9,6,0,7.4l5.1,8.8h0c.1.2.2.3.3.5l1.7-.2-.3.5a1.1,1.1,0,0,0,.3,1.5l.7.5a1.1,1.1,0,0,0,1.5-.3l.3-.4.2,1.5a8.2,8.2,0,0,0,4.4-.1l.6.4a8.11,8.11,0,0,0,4-3.1A8.91,8.91,0,0,0,20,12.1Zm-5.8,4.2c-.1.2-.3.2-.5.1s-.2-.3-.1-.5.3-.2.5-.1S14.3,16.1,14.2,16.3Zm-.1-2.5a2.81,2.81,0,0,1-2.4,1.3,3,3,0,0,1-1.6-.5,2.9,2.9,0,0,1-.8-4,2.81,2.81,0,0,1,2.4-1.3,3,3,0,0,1,1.6.5A2.9,2.9,0,0,1,14.1,13.8Zm1.1,3.9c-.1.2-.3.2-.5.1s-.2-.3-.1-.5.3-.2.5-.1S15.4,17.6,15.2,17.7Zm.3-2.8c-.1.2-.3.2-.5.1s-.2-.3-.1-.5.3-.2.5-.1S15.6,14.8,15.5,14.9Zm.3-1.6c-.2-.1-.2-.3-.1-.5s.3-.2.5-.1.2.3.1.5A.35.35,0,0,1,15.8,13.3Zm1.1,2.6c-.1.2-.3.2-.5.1s-.2-.3-.1-.5.3-.2.5-.1S17,15.7,16.9,15.9ZM18,13.6c-.1.2-.3.2-.5.1s-.2-.3-.1-.5.3-.2.5-.1S18.1,13.4,18,13.6Z" style="fill:#fe5858"/><path d="M12.9,10.4a2.84,2.84,0,0,0-1.2-.4,2.23,2.23,0,0,0-1.8,1,2.13,2.13,0,0,0,.6,3,2.84,2.84,0,0,0,1.2.4,2.23,2.23,0,0,0,1.8-1A2.13,2.13,0,0,0,12.9,10.4Z" style="fill:#fe5858"/></svg>